<?xml version="1.0" standalone="no"?>
<!DOCTYPE svg PUBLIC "-//W3C//DTD SVG 1.1//EN" "http://www.w3.org/Graphics/SVG/1.1/DTD/svg11.dtd" >
<svg xmlns="http://www.w3.org/2000/svg">
<metadata></metadata>
<defs>
<font id="dual600" horiz-adv-x="1695" >
<font-face units-per-em="2048" ascent="1536" descent="-512" />
<missing-glyph horiz-adv-x="524" />
<glyph horiz-adv-x="0" />
<glyph unicode="&#xd;" horiz-adv-x="524" />
<glyph horiz-adv-x="0" />
<glyph horiz-adv-x="0" />
<glyph unicode=" "  horiz-adv-x="524" />
<glyph unicode="&#x09;" horiz-adv-x="524" />
<glyph unicode="&#xa0;" horiz-adv-x="524" />
<glyph unicode="!" horiz-adv-x="499" d="M147 0v205h205v-205h-205zM147 369v1085h205v-1085h-205z" />
<glyph unicode="&#x22;" horiz-adv-x="774" d="M121 1454h205l-21 -430h-164zM449 1454h204l-20 -430h-164z" />
<glyph unicode="#" horiz-adv-x="1646" d="M80 369l24 204h355l35 306h-355l23 204h354l43 371h205l-43 -371h287l43 371h204l-43 -371h357l-23 -204h-356l-35 -306h356l-22 -204h-356l-41 -369h-205l41 369h-287l-41 -369h-205l41 369h-356zM664 573h286l35 306h-287z" />
<glyph unicode="$" horiz-adv-x="1331" d="M80 410h205q0 -98 77.5 -156.5t198.5 -75.5v492q-92 20 -173 51t-140.5 77t-93 111.5t-33.5 157.5q0 88 33.5 159.5t92 124t139.5 85t175 45.5v116h205v-116q98 -12 180 -48t139.5 -89.5t89 -124t31.5 -152.5h-205q0 82 -66.5 135t-168.5 72v-445q102 -25 190 -57.5 t153 -81.5t101.5 -117.5t36.5 -162.5t-36.5 -170t-101.5 -131.5t-153 -89t-190 -46.5v-116h-205v116q-102 12 -190 47t-152.5 90.5t-101.5 131t-37 168.5zM326 1067q0 -70 66.5 -117t168.5 -76v400q-111 -16 -173 -69.5t-62 -137.5zM766 180q121 18 198.5 78t77.5 152 q0 45 -20.5 79.5t-57 59t-88 43t-110.5 33.5v-445z" />
<glyph unicode="%" horiz-adv-x="1642" d="M76 0l1229 1454h264l-1229 -1454h-264zM113 1147q0 63 24.5 119.5t65.5 97.5t97 65.5t120 24.5q63 0 119.5 -24.5t97.5 -65.5t65.5 -97.5t24.5 -119.5t-24.5 -119.5t-65.5 -97.5t-97.5 -65.5t-119.5 -24.5t-119.5 24.5t-97.5 65.5t-65.5 97.5t-24.5 119.5zM317 1147 q0 -43 30 -73t73 -30t72.5 30t29.5 73t-29.5 72.5t-72.5 29.5t-73 -29.5t-30 -72.5zM918 307q0 63 24.5 119.5t65.5 97.5t97 65.5t120 24.5q63 0 119.5 -24.5t97.5 -65.5t65.5 -97t24.5 -120q0 -63 -24.5 -119.5t-65.5 -97.5t-97.5 -65.5t-119.5 -24.5t-119.5 24.5 t-97.5 65.5t-65.5 97.5t-24.5 119.5zM1122 307q0 -43 30 -72.5t73 -29.5t72.5 29.5t29.5 72.5t-29.5 73t-72.5 30t-73 -30t-30 -73z" />
<glyph unicode="&#x26;" horiz-adv-x="1435" d="M90 373q0 92 31 161.5t82 122.5v430q0 82 31.5 156t85 127t126 85t156.5 32q82 0 155.5 -32t127 -85t85 -127t31.5 -156q0 -106 -52 -178.5t-131 -126t-170 -94.5t-170 -84t-131 -97t-52 -134q0 -41 24.5 -78t65.5 -64.5t97.5 -43t119.5 -15.5t119.5 15.5t97.5 43 t65.5 64.5t24.5 78v92h-143v205h225q86 0 145.5 59t59.5 145h205q0 -68 -21.5 -130t-59.5 -114t-91 -90t-115 -57v-110q0 -84 -40 -158t-109.5 -129t-162.5 -87t-200 -32q-106 0 -199.5 32t-163 87t-109.5 129t-40 158zM408 799q70 37 139 66.5t124.5 61t90.5 69.5t35 91 q0 39 -15.5 75t-42 62.5t-62.5 42t-75 15.5q-41 0 -75.5 -15.5t-61.5 -42t-42 -62.5t-15 -75v-288z" />
<glyph unicode="'" horiz-adv-x="438" d="M133 1024v102q35 0 58.5 24t23.5 58v41h123v-20q0 -86 -59.5 -145.5t-145.5 -59.5zM133 1249v205h205v-205h-205z" />
<glyph unicode="(" horiz-adv-x="598" d="M90 727q0 201 36 378t97.5 309t143.5 209t174 77v-82q-51 0 -95.5 -69.5t-78 -191.5t-53 -284t-19.5 -346t19.5 -346t53 -284t77.5 -191.5t96 -69.5v-82q-92 0 -174 77t-143.5 209t-97.5 309t-36 378z" />
<glyph unicode=")" horiz-adv-x="598" d="M57 -164q51 0 95.5 69.5t78 191.5t53 284t19.5 346t-19.5 346t-53 284t-77.5 191.5t-96 69.5v82q92 0 174 -77t143.5 -209t97.5 -309t36 -378t-36 -378t-97.5 -309t-143 -209t-174.5 -77v82z" />
<glyph unicode="*" horiz-adv-x="704" d="M119 1141l143 73l-143 74l53 92l135 -88l-8 162h107l-9 -162l135 88l54 -92l-142 -74l142 -73l-54 -92l-135 88l9 -162h-107l8 162l-135 -88z" />
<glyph unicode="+" horiz-adv-x="1077" d="M84 563v205h352v352h205v-352h352v-205h-352v-352h-205v352h-352z" />
<glyph unicode="," horiz-adv-x="458" d="M127 0v205h205v-225q0 -86 -59.5 -145.5t-145.5 -59.5v102q35 0 58.5 23.5t23.5 58.5v41h-82z" />
<glyph unicode="-" horiz-adv-x="962" d="M129 471v205h705v-205h-705z" />
<glyph unicode="." horiz-adv-x="462" d="M129 0v205h205v-205h-205z" />
<glyph unicode="/" horiz-adv-x="925" d="M68 -82l573 1618h217l-573 -1618h-217z" />
<glyph unicode="0" horiz-adv-x="1454" d="M102 727q0 170 46.5 310.5t129 239.5t197.5 154.5t252 55.5t252 -55.5t198 -154.5t129 -239.5t46 -310.5t-46 -310.5t-129 -239.5t-198 -154.5t-252 -55.5t-252 55.5t-197.5 154.5t-129 239.5t-46.5 310.5zM307 727q0 -127 30 -230.5t85 -175t132 -110.5t173 -39 q94 0 172 39t133 110.5t85 175t30 230.5t-30 229.5t-85 175t-133 111.5t-172 39q-96 0 -173 -39t-132 -111.5t-85 -175t-30 -229.5z" />
<glyph unicode="1" horiz-adv-x="684" d="M23 1149l305 305h204v-1454h-204v1163l-160 -159z" />
<glyph unicode="2" horiz-adv-x="1329" d="M90 0v205q0 100 40 174t104.5 131t147.5 100t169 80t169 71t147.5 73.5t104.5 88t40 113.5q0 49 -18.5 94.5t-58.5 79t-104.5 53t-156.5 19.5q-84 0 -143.5 -15.5t-99.5 -43t-62.5 -64.5t-28.5 -80l-203 35q12 78 53 146.5t108 119t161 79t215 28.5q135 0 236.5 -36 t170 -97.5t102.5 -143.5t34 -174q0 -102 -40 -177t-104.5 -132t-147.5 -100t-169 -79t-169 -70t-147.5 -72.5t-104.5 -87t-40 -113.5h922v-205h-1127z" />
<glyph unicode="3" horiz-adv-x="1331" d="M74 342l202 35q8 -41 33 -78t69 -65.5t111.5 -45t161.5 -16.5q106 0 178 20.5t117 55.5t64.5 79t19.5 93t-19.5 91t-64.5 74.5t-116.5 51t-178.5 18.5h-82v205h82q90 0 149.5 16.5t94.5 44t49 64.5t14 80t-14 82t-49 68.5t-94.5 48t-149.5 18.5q-78 0 -133 -14.5t-91 -38 t-54.5 -55t-24.5 -66.5l-203 35q12 70 48 133t98.5 109.5t151.5 74t208 27.5q133 0 230.5 -34t160 -92t92 -135t29.5 -161q0 -88 -31.5 -163t-97.5 -132q102 -59 151.5 -150.5t49.5 -199.5q0 -92 -36 -174t-107.5 -143.5t-182 -98.5t-258.5 -37q-133 0 -234.5 30t-173 80 t-113.5 118.5t-56 146.5z" />
<glyph unicode="4" horiz-adv-x="1331" d="M55 389v205l819 860h205v-860h164v-205h-164v-389h-205v389h-819zM338 594h536v565z" />
<glyph unicode="5" horiz-adv-x="1314" d="M82 373l203 35q8 -47 32.5 -90.5t70.5 -76t112.5 -51t158.5 -18.5q100 0 173 22.5t118 61.5t66.5 89t21.5 106q0 55 -21.5 103t-66.5 85t-117.5 57.5t-173.5 20.5h-538l123 737h858v-205h-688l-56 -327h301q143 0 253 -37t183.5 -101.5t110.5 -149.5t37 -183t-37 -185.5 t-110.5 -154t-183 -105.5t-253.5 -39q-129 0 -230 32t-174 87t-116 129t-57 158z" />
<glyph unicode="6" horiz-adv-x="1314" d="M104 727q0 170 40 310.5t115 239.5t183.5 154.5t245.5 55.5q154 0 282 -63.5t204 -172.5l-168 -112q-47 66 -133.5 104.5t-184.5 38.5q-180 0 -274.5 -134t-104.5 -366q63 66 156.5 103t222.5 37q127 0 228.5 -37t171 -101.5t106.5 -149.5t37 -183t-37 -185.5 t-106.5 -154t-171 -105.5t-228.5 -39q-137 0 -245.5 55.5t-183.5 154.5t-115 239.5t-40 310.5zM350 451q0 -55 26.5 -105.5t73 -89.5t107.5 -61.5t131 -22.5q86 0 149.5 22.5t105.5 61.5t62.5 89t20.5 106q0 111 -84 188.5t-254 77.5t-254 -77.5t-84 -188.5z" />
<glyph unicode="7" horiz-adv-x="1118" d="M55 1249v205h1024v-205l-635 -1249h-229l635 1249h-795z" />
<glyph unicode="8" horiz-adv-x="1359" d="M96 420q0 109 49.5 200t151.5 150q-66 57 -97.5 132t-31.5 163q0 84 29.5 161t92 135t160 92t230.5 34t230.5 -34t160 -92t92 -135t29.5 -161q0 -88 -32 -163t-97 -132q102 -59 151.5 -150.5t49.5 -199.5q0 -92 -36 -174t-107.5 -143.5t-182.5 -98.5t-258 -37t-258 37 t-182.5 98.5t-107.5 143.5t-36 174zM301 420q0 -49 19.5 -93t63.5 -79t116.5 -55.5t179.5 -20.5q106 0 178 20.5t117 55.5t64.5 79t19.5 93t-19.5 91t-64.5 74.5t-117 51t-178 18.5t-179 -18.5t-117 -51t-63.5 -74.5t-19.5 -91zM373 1065q0 -43 14 -80t49 -64.5t94.5 -44 t149.5 -16.5t149.5 16.5t94 44t49 64.5t14.5 80t-14.5 82t-49 68.5t-94 48t-149.5 18.5t-149.5 -18.5t-94.5 -48t-49 -68.5t-14 -82z" />
<glyph unicode="9" horiz-adv-x="1314" d="M84 1004q0 98 37 185t106.5 153.5t171 105.5t228.5 39q137 0 245.5 -55.5t183 -154.5t114.5 -239.5t40 -310.5t-40 -310.5t-114.5 -239.5t-183 -154.5t-245.5 -55.5q-154 0 -282 63.5t-204 172.5l168 112q47 -66 133 -104.5t185 -38.5q180 0 274 134t105 366 q-63 -66 -156.5 -103t-222.5 -37q-127 0 -228.5 37t-171 101.5t-106.5 149.5t-37 184zM289 1004q0 -111 84 -189t254 -78t254 78t84 189q0 55 -27 105t-73 89t-107.5 61.5t-130.5 22.5q-86 0 -149.5 -22.5t-105.5 -61.5t-62.5 -89t-20.5 -105z" />
<glyph unicode=":" horiz-adv-x="462" d="M129 0v205h205v-205h-205zM129 686v205h205v-205h-205z" />
<glyph unicode=";" horiz-adv-x="462" d="M129 0v205h205v-225q0 -86 -59.5 -145.5t-145.5 -59.5v102q35 0 58.5 23.5t23.5 58.5v41h-82zM129 686v205h205v-205h-205z" />
<glyph unicode="&#x3c;" horiz-adv-x="976" d="M80 524v232l745 409v-231l-534 -295l534 -293v-231z" />
<glyph unicode="=" horiz-adv-x="1064" d="M139 317v205h787v-205h-787zM139 707v204h787v-204h-787z" />
<glyph unicode="&#x3e;" horiz-adv-x="976" d="M152 115v231l534 293l-534 295v231l745 -409v-232z" />
<glyph unicode="?" horiz-adv-x="1273" d="M72 1036q0 92 44 174t120.5 143.5t179 97.5t219.5 36t219 -36t179 -97.5t121 -143.5t44 -174q0 -135 -71.5 -231t-225.5 -184q-78 -45 -127 -72t-77.5 -51.5t-40 -53t-11.5 -75.5h-205q0 68 11.5 118t45 93t96 87t165.5 103q66 37 110.5 68.5t72.5 62.5t40 63.5t12 71.5 q0 49 -27.5 94.5t-76.5 79t-114.5 53t-139.5 19.5t-139.5 -19.5t-114.5 -53t-77 -79t-28 -94.5h-204zM440 0v205h205v-205h-205z" />
<glyph unicode="@" d="M98 727q0 158 59.5 296t163 241.5t241.5 163t296 59.5t296 -59.5t241.5 -163t163 -241.5t59.5 -296v-106q0 -55 -21.5 -105.5t-58.5 -87.5t-87 -58.5t-105 -21.5q-57 0 -106.5 21.5t-86.5 58.5q-57 -57 -133 -89t-162 -32t-163 33t-134 90t-90 134t-33 163t33 163t90 134 t134 90t163 33t163 -33t134 -90t90 -134t33 -163v-106q0 -29 19.5 -48.5t48.5 -19.5t48 19.5t19 48.5v106q0 115 -44 216t-118.5 176t-176 119t-216.5 44t-216 -44t-177 -119t-119 -176t-43 -216t43 -216t119 -177t177 -119t216 -43v-205q-158 0 -296 59.5t-241.5 163 t-163 241.5t-59.5 296zM643 727q0 -45 16.5 -84t46 -68.5t68.5 -46t84 -16.5t84 16.5t67.5 46t46 68.5t17.5 84t-17.5 84t-46 67.5t-67.5 46t-84 17.5t-84 -17.5t-68.5 -46t-46 -67.5t-16.5 -84z" />
<glyph unicode="A" horiz-adv-x="1404" d="M18 0l570 1454h229l569 -1454h-219l-151 385h-629l-149 -385h-220zM467 590h469l-234 598z" />
<glyph unicode="B" horiz-adv-x="1505" d="M184 0v1454h731q86 0 162 -32.5t132.5 -89t89 -132.5t32.5 -162q0 -80 -28.5 -150.5t-77.5 -125.5q86 -55 138 -146.5t52 -201.5q0 -86 -32.5 -162t-89 -131t-132.5 -88t-162 -33h-815zM389 205h610q43 0 82 16.5t68 44t45 66.5t16 82t-16 82t-45 67.5t-68 45t-82 16.5 h-610v-420zM389 829h526q43 0 82 16.5t68 44.5t45 66.5t16 81.5t-16 82t-45 68t-68 45t-82 16h-526v-420z" />
<glyph unicode="C" horiz-adv-x="1429" d="M88 727q0 158 59.5 296t163 241.5t241.5 163t296 59.5q156 0 290 -57.5t238 -157.5l-143 -146q-76 72 -174 114t-211 42q-115 0 -216.5 -44t-177 -119t-118.5 -176t-43 -216t43 -216t118.5 -177t177 -119t216.5 -43q113 0 211 42t174 114l143 -146 q-104 -100 -239.5 -157.5t-288.5 -57.5q-158 0 -296 59.5t-241.5 163t-163 241.5t-59.5 296z" />
<glyph unicode="D" horiz-adv-x="1564" d="M184 0v1454h564q150 0 282.5 -57.5t231 -155.5t156 -231t57.5 -283q0 -152 -57.5 -284t-156 -230t-231.5 -155.5t-282 -57.5h-564zM389 205h359q109 0 204 41t165.5 111.5t111.5 165.5t41 204t-41 204t-111.5 165.5t-166 111.5t-203.5 41h-359v-1044z" />
<glyph unicode="E" horiz-adv-x="1339" d="M184 0v1454h1045v-205h-840v-420h778v-204h-778v-420h840v-205h-1045z" />
<glyph unicode="F" horiz-adv-x="1316" d="M184 0v1454h1045v-205h-840v-420h778v-204h-778v-625h-205z" />
<glyph unicode="G" horiz-adv-x="1556" d="M88 727q0 158 59.5 296t163 241.5t241.5 163t296 59.5q156 0 290 -57.5t238 -157.5l-143 -146q-76 72 -174 114t-211 42q-115 0 -216.5 -44t-177 -119t-118.5 -176t-43 -216t43 -216t118.5 -177t177 -119t216.5 -43q113 0 211 42t174 114v278h-553v205h758v-811h-205v72 q-86 -51 -183.5 -78t-201.5 -27q-158 0 -296 59.5t-241.5 163t-163 241.5t-59.5 296z" />
<glyph unicode="H" horiz-adv-x="1589" d="M184 0v1454h205v-625h811v625h205v-1454h-205v625h-811v-625h-205z" />
<glyph unicode="I" horiz-adv-x="573" d="M184 0v1454h205v-1454h-205z" />
<glyph unicode="J" horiz-adv-x="1001" d="M10 121l146 143q37 -43 89 -67.5t113 -24.5q55 0 103.5 20.5t85.5 57.5t57.5 85t20.5 103v1016h204v-1016q0 -98 -36.5 -183t-101 -149.5t-149.5 -101.5t-184 -37q-104 0 -193 41t-155 113z" />
<glyph unicode="K" horiz-adv-x="1343" d="M184 0v1454h205v-666l653 666h287l-602 -614l602 -840h-254l-491 692l-195 -198v-494h-205z" />
<glyph unicode="L" horiz-adv-x="1280" d="M184 0v1454h205v-1249h860v-205h-1065z" />
<glyph unicode="M" horiz-adv-x="1855" d="M184 0v1454h205l539 -1206l538 1206h205v-1454h-205v975l-428 -975h-221l-428 975v-975h-205z" />
<glyph unicode="N" horiz-adv-x="1589" d="M184 0v1454h205l811 -1106v1106h205v-1454h-205l-811 1106v-1106h-205z" />
<glyph unicode="O" d="M88 727q0 158 59.5 296t163 241.5t241.5 163t296 59.5t296 -59.5t241.5 -163t163 -241.5t59.5 -296t-59.5 -296t-163 -241.5t-241.5 -163t-296 -59.5t-296 59.5t-241.5 163t-163 241.5t-59.5 296zM293 727q0 -115 43 -216t118.5 -177t177 -119t216.5 -43t216 43t176 119 t119 177t44 216t-44 216t-119 176t-176 119t-216 44t-216.5 -44t-177 -119t-118.5 -176t-43 -216z" />
<glyph unicode="P" horiz-adv-x="1392" d="M184 0v1454h650q102 0 193 -39t158.5 -106.5t106.5 -158.5t39 -194q0 -102 -39 -192t-106.5 -157.5t-158.5 -106.5t-193 -39h-445v-461h-205zM389 666h445q61 0 114 22.5t93 62.5t62.5 92t22.5 113t-22.5 114.5t-62.5 93.5t-93 62.5t-114 22.5h-445v-583z" />
<glyph unicode="Q" d="M88 727q0 158 59.5 296t163 241.5t241.5 163t296 59.5t296 -59.5t241.5 -163t163 -241.5t59.5 -296q0 -131 -42 -248t-114 -213l125 -125l-141 -141l-125 125q-98 -74 -215 -116t-248 -42q-158 0 -296 59.5t-241.5 163t-163 241.5t-59.5 296zM293 727q0 -115 43 -216 t118.5 -177t177 -119t216.5 -43q88 0 168 25.5t147 72.5l-123 125l140 142l125 -125q47 66 72.5 145.5t25.5 169.5q0 115 -44 216t-119 176t-176 119t-216 44t-216.5 -44t-177 -119t-118.5 -176t-43 -216z" />
<glyph unicode="R" horiz-adv-x="1423" d="M184 0v1454h680q96 0 181 -37t148.5 -100.5t100.5 -148.5t37 -181q0 -84 -26.5 -157.5t-74.5 -133t-113.5 -101.5t-141.5 -60l323 -535h-237l-316 522h-356v-522h-205zM389 727h475q55 0 102.5 20.5t83 55.5t56 82t20.5 102t-20.5 102.5t-56 83t-82.5 56t-103 20.5h-475 v-522z" />
<glyph unicode="S" horiz-adv-x="1331" d="M80 410h205q0 -59 29.5 -103.5t80.5 -74t121 -45t148 -15.5t147.5 16.5t120.5 47t80.5 74.5t29.5 100q0 55 -29.5 93t-80.5 65.5t-121 45t-147 33.5q-111 20 -209.5 50t-172 78t-117.5 118t-44 174q0 100 43 178t116.5 132.5t172 82t211.5 27.5q119 0 219 -31t171.5 -86 t111.5 -133t40 -170h-205q0 51 -26.5 91t-72.5 67.5t-107.5 42t-130.5 14.5q-156 0 -247 -56.5t-91 -158.5q0 -43 27.5 -77t73.5 -60.5t107.5 -46t129.5 -31.5q121 -23 227 -55.5t185 -82.5t125 -124t46 -180t-46 -188.5t-125 -138.5t-185.5 -86t-226.5 -30 q-121 0 -227.5 31t-185.5 88t-125 139t-46 185z" />
<glyph unicode="T" horiz-adv-x="1331" d="M31 1249v205h1269v-205h-532v-1249h-205v1249h-532z" />
<glyph unicode="U" horiz-adv-x="1550" d="M166 578v876h205v-876q0 -84 31.5 -158t87 -129t129 -87t157.5 -32t158 32t129 87t87 129t32 158v876h204v-876q0 -127 -48 -238t-131 -194t-194.5 -131t-236.5 -48q-127 0 -237.5 48t-193.5 131t-131 194t-48 238z" />
<glyph unicode="V" horiz-adv-x="1404" d="M18 1454h220l464 -1188l465 1188h219l-569 -1454h-229z" />
<glyph unicode="W" horiz-adv-x="1941" d="M45 1454h213l303 -1077l303 1077h213l303 -1077l303 1077h213l-409 -1454h-213l-303 1075l-303 -1075h-213z" />
<glyph unicode="X" horiz-adv-x="1302" d="M29 0l499 727l-499 727h245l377 -549l377 549h246l-500 -727l500 -727h-246l-377 547l-377 -547h-245z" />
<glyph unicode="Y" horiz-adv-x="1392" d="M12 1454h248l436 -647l437 647h247l-581 -858v-596h-205v596z" />
<glyph unicode="Z" horiz-adv-x="1398" d="M84 0v205l944 1044h-924v205h1201v-205l-945 -1044h945v-205h-1221z" />
<glyph unicode="[" horiz-adv-x="645" d="M141 -246v1946h451v-205h-246v-1536h246v-205h-451z" />
<glyph unicode="\" horiz-adv-x="925" d="M68 1536h217l573 -1618h-217z" />
<glyph unicode="]" horiz-adv-x="645" d="M53 -41h246v1536h-246v205h451v-1946h-451v205z" />
<glyph unicode="^" horiz-adv-x="1105" d="M109 872l327 582h234l327 -582h-233l-211 375l-211 -375h-233z" />
<glyph unicode="_" horiz-adv-x="1187" d="M119 -20h950v-205h-950v205z" />
<glyph unicode="`" horiz-adv-x="770" d="M123 1354l78 166l438 -226l-61 -129z" />
<glyph unicode="a" horiz-adv-x="1079" d="M53 303q0 68 30 126t80 102t118.5 70t146.5 26h313v41q0 39 -19.5 70.5t-52 54t-76.5 35t-93 12.5q-61 0 -114.5 -10.5t-94.5 -22.5q-47 -14 -84 -31l-53 187q53 23 110 41q49 16 111.5 28t124.5 12q92 0 173 -27.5t142.5 -77.5t96 -119.5t34.5 -151.5v-668h-205v127 q-51 -66 -133 -106.5t-180 -40.5q-78 0 -146.5 25.5t-118.5 69.5t-80 102.5t-30 125.5zM258 324q0 -59 70.5 -99.5t171.5 -40.5q100 0 170.5 40t70.5 100v139h-241q-100 0 -171 -40t-71 -99z" />
<glyph unicode="b" horiz-adv-x="1214" d="M141 0v1536h205v-662q61 78 147.5 124t186.5 46q94 0 177 -41.5t145.5 -113.5t98.5 -169t36 -208t-36 -208t-98.5 -169t-145.5 -113.5t-177 -41.5q-100 0 -186 45t-148 122v-147h-205zM346 512q0 -68 22.5 -127t62.5 -104t93.5 -71t114.5 -26t114.5 26t93.5 71t62.5 104 t22.5 127t-22.5 127t-62.5 104t-93.5 71t-114.5 26t-114.5 -26t-93.5 -71t-62.5 -104t-22.5 -127z" />
<glyph unicode="c" horiz-adv-x="1060" d="M76 512q0 111 40 208t109.5 169t164.5 113.5t208 41.5q125 0 232.5 -55t179.5 -149l-170 -115q-43 53 -106.5 84t-135.5 31q-70 0 -128 -26t-100 -71t-65.5 -104t-23.5 -127t23.5 -127t65.5 -104t100 -71t128 -26q72 0 135.5 31t106.5 84l170 -115q-72 -94 -179.5 -149 t-232.5 -55q-113 0 -208 41.5t-164.5 113.5t-109.5 169t-40 208z" />
<glyph unicode="d" horiz-adv-x="1216" d="M78 512q0 111 36 208t98 169t145 113.5t178 41.5q98 0 184 -46t149 -124v662h205v-1536h-205v147q-63 -78 -149 -122.5t-184 -44.5q-94 0 -177.5 41.5t-145.5 113.5t-98 169t-36 208zM283 512q0 -68 22.5 -127t62.5 -104t93 -71t114 -26t114.5 26t93.5 71t62.5 104 t22.5 127t-22.5 127t-62.5 104t-93 71t-115 26q-61 0 -114 -26t-93 -71t-62.5 -104t-22.5 -127z" />
<glyph unicode="e" horiz-adv-x="1099" d="M76 512q0 111 38 208t103.5 169t152.5 113.5t187 41.5t187 -41.5t153 -113.5t103.5 -169t37.5 -208v-82h-749q23 -106 96.5 -176t171.5 -70q72 0 135.5 31t106.5 84l170 -115q-72 -94 -179.5 -149t-232.5 -55q-100 0 -187 41.5t-152.5 113.5t-103.5 169t-38 208zM289 594 h534q-12 53 -36.5 98t-59.5 78t-78 51.5t-92 18.5q-98 0 -172 -70t-96 -176z" />
<glyph unicode="f" horiz-adv-x="706" d="M29 819v205h164v164q0 76 28.5 143.5t78.5 117.5t117.5 78.5t143.5 28.5q86 0 160 -36.5t125 -98.5l-162 -125q-49 55 -123 56q-68 0 -116 -48.5t-48 -115.5v-164h287v-205h-287v-819h-204v819h-164z" />
<glyph unicode="g" horiz-adv-x="1214" d="M78 512q0 111 36 208t98 169t145 113.5t178 41.5q98 0 184 -46t149 -124v150h205v-1014q0 -121 -45 -206t-117.5 -139t-165 -79.5t-188.5 -25.5q-94 0 -169 16t-128 39q-63 25 -110 57l98 181q18 -10 44.5 -25.5t63.5 -29t86.5 -24t114.5 -10.5q164 0 237.5 68t73.5 178 v137q-63 -78 -149 -122.5t-184 -44.5q-94 0 -177.5 41.5t-145.5 113.5t-98 169t-36 208zM283 512q0 -68 22.5 -127t62.5 -104t93 -71t114 -26t114.5 26t93.5 71t62.5 104t22.5 127t-22.5 127t-62.5 104t-93 71t-115 26q-61 0 -114 -26t-93 -71t-62.5 -104t-22.5 -127z" />
<glyph unicode="h" horiz-adv-x="1169" d="M143 0v1536h205v-639q53 68 132 107.5t171 39.5q80 0 149.5 -30.5t122 -82.5t83 -122t30.5 -150v-659h-205v598q0 49 -19 93t-52 77t-77 52.5t-93 19.5t-93 -18.5t-77 -49.5t-52.5 -73t-19.5 -91v-608h-205z" />
<glyph unicode="i" horiz-adv-x="491" d="M143 0v1024h205v-1024h-205zM143 1249v205h205v-205h-205z" />
<glyph unicode="j" horiz-adv-x="491" d="M-20 -236q68 0 115.5 48.5t47.5 115.5v1096h205v-1096q0 -76 -28.5 -143.5t-79 -117.5t-118 -78.5t-142.5 -28.5v204zM143 1249v205h205v-205h-205z" />
<glyph unicode="k" horiz-adv-x="1054" d="M143 0v1536h205v-934l410 422h284l-426 -438l426 -586h-254l-317 436l-123 -127v-309h-205z" />
<glyph unicode="l" horiz-adv-x="491" d="M143 0v1536h205v-1536h-205z" />
<glyph unicode="m" horiz-adv-x="1855" d="M143 0v1024h205v-127q53 68 132 107.5t171 39.5q113 0 205 -58t139 -155q47 96 138.5 154.5t205.5 58.5q80 0 150 -30.5t122 -82.5t82.5 -122t30.5 -150v-659h-204v598q0 49 -19.5 93t-52.5 77t-77 52.5t-93 19.5t-93 -18.5t-77 -49.5t-52.5 -73t-19.5 -91v-608h-205v608 q0 49 -19 91t-53 73t-77 49.5t-92 18.5t-93 -18.5t-77 -49.5t-52.5 -73t-19.5 -91v-608h-205z" />
<glyph unicode="n" horiz-adv-x="1169" d="M143 0v1024h205v-127q53 68 132 107.5t171 39.5q80 0 149.5 -30.5t122 -82.5t83 -122t30.5 -150v-659h-205v598q0 49 -19 93t-52 77t-77 52.5t-93 19.5t-93 -18.5t-77 -49.5t-52.5 -73t-19.5 -91v-608h-205z" />
<glyph unicode="o" horiz-adv-x="1196" d="M76 512q0 111 40 208t109.5 169t164.5 113.5t208 41.5t208 -41.5t164.5 -113.5t109.5 -169t40 -208t-40 -208t-109.5 -169t-164.5 -113.5t-208 -41.5t-208 41.5t-164.5 113.5t-109.5 169t-40 208zM281 512q0 -68 23.5 -127t65.5 -104t100 -71t128 -26t128 26t100 71 t65.5 104t23.5 127t-23.5 127t-65.5 104t-100 71t-128 26t-128 -26t-100 -71t-65.5 -104t-23.5 -127z" />
<glyph unicode="p" horiz-adv-x="1216" d="M143 -430v1454h205v-150q61 78 147.5 124t186.5 46q94 0 177 -41.5t145.5 -113.5t98.5 -169t36 -208t-36 -208t-98.5 -169t-145.5 -113.5t-177 -41.5q-100 0 -186 45t-148 122v-577h-205zM348 512q0 -68 22.5 -127t62.5 -104t93.5 -71t114.5 -26t114.5 26t93.5 71 t62.5 104t22.5 127t-22.5 127t-62.5 104t-93.5 71t-114.5 26t-114.5 -26t-93.5 -71t-62.5 -104t-22.5 -127z" />
<glyph unicode="q" horiz-adv-x="1216" d="M78 512q0 111 36 208t98 169t145 113.5t178 41.5q98 0 184 -46t149 -124v150h205v-1454h-205v577q-63 -78 -149 -122.5t-184 -44.5q-94 0 -177.5 41.5t-145.5 113.5t-98 169t-36 208zM283 512q0 -68 22.5 -127t62.5 -104t93 -71t114 -26t114.5 26t93.5 71t62.5 104 t22.5 127t-22.5 127t-62.5 104t-93 71t-115 26q-61 0 -114 -26t-93 -71t-62.5 -104t-22.5 -127z" />
<glyph unicode="r" horiz-adv-x="733" d="M143 0v1024h205v-141q59 74 153.5 117.5t211.5 43.5v-204q-88 0 -157 -17.5t-115 -58.5t-69.5 -106.5t-23.5 -161.5v-496h-205z" />
<glyph unicode="s" horiz-adv-x="1007" d="M70 305h204q0 -33 18.5 -59.5t50.5 -45t74 -27.5t89 -9t89 9t73.5 27.5t50 45t18.5 59.5q0 25 -18.5 44.5t-50 32.5t-73.5 23.5t-89 20.5q-86 16 -161 37.5t-129 55.5t-86 85t-32 131t32 137.5t85 96.5t126 57t155 18t154.5 -18t125.5 -57t85 -96.5t32 -137.5h-205 q0 59 -48 92t-134 33t-144.5 -32.5t-58.5 -92.5q0 -29 16.5 -46t44 -27.5t64.5 -16.5t78 -14q90 -18 170 -43t139 -63t93 -91t34 -129q0 -84 -34 -144.5t-93 -101.5t-139 -60t-170 -19t-170 19t-139.5 60t-93 101.5t-33.5 144.5z" />
<glyph unicode="t" horiz-adv-x="692" d="M25 819v205h184v389l205 41v-430h204v-205h-204v-409q0 -86 59 -145.5t145 -59.5v-205q-84 0 -158.5 33t-130 88t-88 130t-32.5 159v409h-184z" />
<glyph unicode="u" horiz-adv-x="1169" d="M133 365v659h205v-598q0 -49 19.5 -93t52 -77t76.5 -52.5t94 -19.5q49 0 92 18.5t76.5 49.5t53 73t19.5 91v608h205v-1024h-205v125q-53 -66 -132 -105.5t-171 -39.5q-80 0 -150.5 29.5t-122.5 81.5t-82 123t-30 151z" />
<glyph unicode="v" horiz-adv-x="1064" d="M33 1024h221l278 -733l279 733h221l-389 -1024h-221z" />
<glyph unicode="w" horiz-adv-x="1519" d="M39 1024h213l201 -670l200 670h213l201 -670l201 670h213l-307 -1024h-213l-201 668l-201 -668h-213z" />
<glyph unicode="x" horiz-adv-x="1046" d="M29 0l368 512l-368 512h252l241 -338l244 338h252l-369 -512l369 -512h-252l-244 336l-241 -336h-252z" />
<glyph unicode="y" horiz-adv-x="1064" d="M33 1024h221l278 -733l279 733h221l-432 -1137q-47 -121 -117.5 -185t-136.5 -93q-78 -35 -162 -39v205q45 0 84 18q35 14 70 46t57 91l27 70z" />
<glyph unicode="z" horiz-adv-x="1056" d="M74 0v205l618 614h-577v205h852v-205l-619 -614h619v-205h-893z" />
<glyph unicode="{" horiz-adv-x="722" d="M55 625v204h82q35 0 58.5 25t23.5 57v502q0 59 22.5 111.5t61.5 91.5t91 61.5t112 22.5h164v-205h-164q-35 0 -58.5 -23.5t-23.5 -58.5v-502q0 -53 -18.5 -100t-49.5 -84q31 -39 49.5 -85t18.5 -99v-502q0 -35 23.5 -58.5t58.5 -23.5h164v-205h-164q-59 0 -111.5 22.5 t-91.5 61.5t-61.5 91.5t-22.5 111.5v502q0 35 -23.5 58.5t-58.5 23.5h-82z" />
<glyph unicode="|" horiz-adv-x="491" d="M143 -389v2191h205v-2191h-205z" />
<glyph unicode="}" horiz-adv-x="722" d="M53 -41h164q35 0 58.5 23.5t23.5 58.5v502q0 53 18.5 99t49.5 85q-31 37 -49.5 84t-18.5 100v502q0 35 -23.5 58.5t-58.5 23.5h-164v205h164q59 0 111.5 -22.5t91.5 -61.5t61.5 -91t22.5 -112v-502q0 -33 23.5 -57.5t58.5 -24.5h82v-204h-82q-35 0 -58.5 -23.5 t-23.5 -58.5v-502q0 -59 -22.5 -111.5t-61.5 -91.5t-91.5 -61.5t-111.5 -22.5h-164v205z" />
<glyph unicode="~" horiz-adv-x="1220" d="M111 903l84 84q57 57 124.5 74.5t131 11.5t119 -27.5t87.5 -39.5q37 -23 66 -36.5t54.5 -16.5t51 4.5t54.5 29.5l84 84l145 -145l-84 -84q-57 -57 -124.5 -74.5t-131 -11.5t-119 27.5t-88.5 39.5q-37 20 -65.5 34.5t-54 18t-51 -5t-54.5 -28.5l-84 -84z" />
<glyph unicode="&#xa1;" horiz-adv-x="499" d="M147 0h205v1085h-205v-1085zM147 1249h205v205h-205v-205z" />
<glyph unicode="&#xa2;" horiz-adv-x="1122" d="M96 512q0 94 30 179t82 153.5t126 117t162 68.5v137h184v-127q106 -14 196.5 -66t153.5 -134l-170 -115q-35 41 -81 69.5t-99 39.5v-644q111 23 180 109l170 -115q-63 -84 -153.5 -136t-196.5 -64v-127h-184v137q-88 20 -162 68.5t-126 116t-82 152.5t-30 181zM301 512 q0 -104 52.5 -186t142.5 -119v608q-90 -37 -142.5 -118t-52.5 -185z" />
<glyph unicode="&#xa3;" horiz-adv-x="1189" d="M119 0v205q45 53 82 108q31 47 56.5 104.5t25.5 110.5q0 4 -1 9.5t-1 9.5v6h-162v205h110q-18 49 -33.5 104.5t-15.5 126.5q0 100 39 191.5t105.5 159t155.5 107.5t192 40q123 0 227.5 -61.5t171.5 -155.5l-158 -133q-39 59 -101 102t-140 43q-59 0 -111.5 -23.5 t-91.5 -63.5t-61.5 -93.5t-22.5 -112.5q0 -66 19.5 -119t41.5 -112h443v-205h-402v-25q0 -70 -18 -128t-41 -101q-25 -51 -57 -94h731v-205h-983z" />
<glyph unicode="&#xa5;" horiz-adv-x="1482" d="M57 1454h248l436 -647l437 647h247l-544 -803h254v-143h-291v-123h291v-143h-291v-242h-205v242h-291v143h291v123h-291v143h252z" />
<glyph unicode="&#xa6;" horiz-adv-x="516" d="M156 -389v901h204v-901h-204zM156 901v901h204v-901h-204z" />
<glyph unicode="&#xa7;" horiz-adv-x="1093" d="M106 293h205q0 -33 18.5 -59.5t50.5 -45t74 -27.5t89 -9t89 9t73.5 27.5t50 45t18.5 59.5q0 25 -18.5 44t-50 32.5t-73.5 24t-89 20.5q-86 16 -161 37.5t-129 55.5t-86 85t-32 131q0 76 27.5 135.5t77.5 99.5q-49 37 -77 90.5t-28 129.5q0 80 32 137t85 96t126 57.5 t154 18.5q82 0 155 -18.5t126 -57.5t85 -96.5t32 -136.5h-205q0 59 -48 92t-134 33t-144.5 -33t-58.5 -92q0 -29 16.5 -49.5t44 -34t64.5 -23.5t78 -18q90 -18 170 -43t139 -63t93 -91t34 -129q0 -78 -28.5 -133t-82.5 -92q51 -37 81 -88.5t30 -120.5q0 -84 -34 -144.5 t-93 -101.5t-139 -60.5t-170 -19.5t-170 19.5t-139.5 60.5t-93.5 101.5t-34 144.5zM340 723q0 -29 16.5 -46.5t44 -27.5t64.5 -16t78 -15l49 -10q78 6 130 34t52 85q0 25 -18.5 44.5t-50 32.5t-73.5 23.5t-89 20.5l-66 12q-59 -14 -98 -52t-39 -85z" />
<glyph unicode="&#xa8;" horiz-adv-x="798" d="M123 1176v204h205v-204h-205zM471 1176v204h205v-204h-205z" />
<glyph unicode="&#xa9;" horiz-adv-x="1224" d="M109 707q0 104 39.5 196t107.5 159.5t160 107.5t196 40t196.5 -40t160 -107.5t107.5 -159.5t40 -196t-40 -196.5t-107.5 -160t-159.5 -107.5t-197 -40q-104 0 -196 40t-160 107.5t-107.5 160t-39.5 196.5zM211 707q0 -84 31.5 -157t86 -127t127 -86t156.5 -32 q82 0 156 32t128 86t86 127t32 157q0 82 -32 155.5t-86 127.5t-128 86t-156 32q-84 0 -156.5 -32t-127 -86t-86 -127.5t-31.5 -155.5zM313 707q0 61 23.5 116.5t63.5 95t95.5 63.5t116.5 24t115.5 -22.5t95.5 -63.5l-73 -72q-55 55 -138 55q-82 0 -139 -57.5t-57 -138.5 q0 -82 57 -139.5t139 -57.5q83 0 138 55l73 -71q-41 -41 -95 -63.5t-116 -22.5q-61 0 -116.5 23.5t-95.5 63.5t-63.5 95t-23.5 117z" />
<glyph unicode="&#xab;" horiz-adv-x="1163" d="M66 520l471 471l116 -114l-356 -357l356 -356l-116 -115zM475 520l471 471l117 -114l-356 -357l356 -356l-117 -115z" />
<glyph unicode="&#xac;" horiz-adv-x="1378" d="M139 543v205h1094v-512h-205v307h-889z" />
<glyph unicode="&#xad;" horiz-adv-x="962" d="M129 471v205h705v-205h-705z" />
<glyph unicode="&#xae;" horiz-adv-x="1224" d="M109 707q0 104 39.5 196t107.5 159.5t160 107.5t196 40t196.5 -40t160 -107.5t107.5 -159.5t40 -196t-40 -196.5t-107.5 -160t-159.5 -107.5t-197 -40q-104 0 -196 40t-160 107.5t-107.5 160t-39.5 196.5zM211 707q0 -84 31.5 -157t86 -127t127 -86t156.5 -32 q82 0 156 32t128 86t86 127t32 157q0 82 -32 155.5t-86 127.5t-128 86t-156 32q-84 0 -156.5 -32t-127 -86t-86 -127.5t-31.5 -155.5zM416 428v557h264q37 0 68.5 -14.5t55 -38t38 -55t14.5 -68.5q0 -55 -31.5 -99t-81.5 -65l95 -217h-109l-88 205h-123v-205h-102zM518 735 h162q31 0 52.5 21.5t21.5 52.5t-21.5 52.5t-52.5 21.5h-162v-148z" />
<glyph unicode="&#xaf;" horiz-adv-x="798" d="M123 1196v184h553v-184h-553z" />
<glyph unicode="&#xb0;" horiz-adv-x="638" d="M84 1239q0 49 18.5 91t51 75t74.5 51.5t91 18.5t91.5 -18.5t75 -51.5t51 -75t18.5 -91t-18.5 -91t-51 -75t-74.5 -51t-92 -18q-49 0 -91 18t-74.5 51t-51 75t-18.5 91zM227 1239q0 -39 27 -65.5t65 -26.5q39 0 66 26.5t27 65.5t-27 65.5t-66 26.5t-65.5 -26.5 t-26.5 -65.5z" />
<glyph unicode="&#xb1;" horiz-adv-x="1085" d="M150 170v205h786v-205h-786zM150 788v205h290v291h205v-291h291v-205h-291v-290h-205v290h-290z" />
<glyph unicode="&#xb2;" horiz-adv-x="727" d="M121 788v82q0 84 61.5 140.5t157.5 109.5q43 25 68.5 40.5t40 26.5t19.5 22.5t5 25.5q0 45 -30.5 75.5t-75.5 30.5t-76 -30.5t-31 -75.5h-123q0 47 18.5 89t49.5 72.5t72.5 49t89.5 18.5q47 0 89 -18.5t72.5 -49t49 -72.5t18.5 -89q0 -41 -12.5 -68.5t-39 -53.5 t-71.5 -52.5t-108 -63.5q-49 -29 -73 -49t-34 -37h338v-123h-475z" />
<glyph unicode="&#xb3;" horiz-adv-x="673" d="M104 979h123q0 -35 31 -57.5t76 -22.5t75.5 22.5t30.5 57.5t-30.5 57.5t-75.5 22.5h-21v123h21q45 0 75.5 23.5t30.5 56.5q0 35 -30.5 57t-75.5 22t-76 -22.5t-31 -56.5h-123q0 43 18.5 79.5t49.5 64.5t73 43t89 15t89 -15t72.5 -43t49 -64.5t18.5 -79.5q0 -82 -65 -142 q31 -29 48 -64.5t17 -76.5q0 -43 -18.5 -80t-49 -64.5t-72.5 -43t-89 -15.5t-89 15.5t-73 43t-49.5 64.5t-18.5 80z" />
<glyph unicode="&#xb4;" horiz-adv-x="770" d="M131 1294l438 226l78 -166l-454 -189z" />
<glyph unicode="&#xb5;" horiz-adv-x="1167" d="M137 -430v1454h205v-598q0 -49 19.5 -93t52 -77t77 -52.5t93.5 -19.5t93 19.5t76.5 52.5t52 77t19.5 93v598h205v-1024h-205v125q-53 -66 -132 -105.5t-171 -39.5q-96 0 -180 45v-455h-205z" />
<glyph unicode="&#xb6;" horiz-adv-x="1400" d="M74 956q0 102 39 193.5t106.5 159t158.5 106.5t193 39h670v-1454h-205v1249h-123v-1249h-204v461h-138q-102 0 -193 39t-158.5 106.5t-106.5 157.5t-39 192zM279 956q0 -61 22.5 -113t62 -92t93 -62.5t114.5 -22.5h138v583h-138q-61 0 -114.5 -22.5t-93 -62.5t-62 -93 t-22.5 -115z" />
<glyph unicode="&#xb7;" horiz-adv-x="462" d="M129 625v204h205v-204h-205z" />
<glyph unicode="&#xb8;" horiz-adv-x="1126" d="M430 -10h123v-82h102v-41q0 -47 -17 -88t-48 -72t-72 -48t-88 -17v122q33 0 57.5 16.5t36.5 45.5h-94v82v82z" />
<glyph unicode="&#xb9;" horiz-adv-x="458" d="M66 1327l127 127h122v-668h-122v496l-41 -41z" />
<glyph unicode="&#xba;" horiz-adv-x="741" d="M90 1120q0 72 19.5 134.5t55.5 109.5t88 73.5t118 26.5t118 -26.5t87.5 -73.5t55 -109.5t19.5 -134.5t-19.5 -134t-55 -109.5t-88 -74t-117.5 -26.5q-66 0 -118 26.5t-88 74t-55.5 109.5t-19.5 134zM213 1120q0 -92 38 -156.5t120 -64.5t119.5 64.5t37.5 156.5 t-37.5 156.5t-119.5 64.5t-120 -64.5t-38 -156.5z" />
<glyph unicode="&#xbb;" horiz-adv-x="1163" d="M100 164l357 356l-357 357l117 114l471 -471l-471 -471zM510 164l356 356l-356 357l117 114l471 -471l-471 -471z" />
<glyph unicode="&#xbc;" horiz-adv-x="1624" d="M70 90l1364 1364l88 -88l-1364 -1364zM168 1327l127 127h123v-668h-123v496l-41 -41zM965 129v123l307 416h123v-416h114v-123h-114v-129h-123v129h-307zM1108 252h164v221z" />
<glyph unicode="&#xbd;" horiz-adv-x="1622" d="M70 90l1364 1364l88 -88l-1364 -1364zM168 1327l127 127h123v-668h-123v496l-41 -41zM1004 0v82q0 84 61 140.5t158 109.5q43 25 68.5 40t40 26.5t19.5 22.5t5 25q0 45 -31 76t-76 31t-75.5 -30.5t-30.5 -76.5h-123q0 47 18.5 89.5t49 73t72.5 49t89 18.5t89 -18.5 t73 -49t49.5 -73t18.5 -89.5q0 -41 -12.5 -68.5t-39 -53t-71.5 -52t-109 -63.5q-49 -29 -72.5 -49.5t-33.5 -36.5h338v-123h-475z" />
<glyph unicode="&#xbe;" horiz-adv-x="1636" d="M94 90l1364 1364l88 -88l-1364 -1364zM125 979h123q0 -35 30.5 -57.5t75.5 -22.5t76 22.5t31 57.5t-31 57.5t-76 22.5h-20v123h20q45 0 76 23.5t31 56.5q0 35 -31 57t-76 22t-75.5 -22.5t-30.5 -56.5h-123q0 43 18.5 79.5t49 64.5t72.5 43t89 15t89 -15t73 -43 t49.5 -64.5t18.5 -79.5q0 -82 -66 -142q31 -29 48.5 -64.5t17.5 -76.5q0 -43 -18.5 -80t-49.5 -64.5t-73 -43t-89 -15.5t-89 15.5t-72.5 43t-49 64.5t-18.5 80zM989 129v123l307 416h123v-416h115v-123h-115v-129h-123v129h-307zM1133 252h163v221z" />
<glyph unicode="&#xbf;" horiz-adv-x="1273" d="M76 418q0 135 71.5 231t225.5 184q78 45 127 72t77.5 51.5t40 53t11.5 75.5h205q0 -68 -11.5 -118t-45 -93t-96 -87t-165.5 -103q-66 -37 -110.5 -68.5t-72.5 -62.5t-40 -63.5t-12 -71.5q0 -49 27.5 -94.5t76.5 -79t114.5 -53t139.5 -19.5t139.5 19.5t114.5 53t77 79 t28 94.5h204q0 -92 -44 -174t-120.5 -143.5t-179 -97.5t-219.5 -36t-219 36t-179 97.5t-121 143.5t-44 174zM629 1249v205h205v-205h-205z" />
<glyph unicode="&#xc0;" horiz-adv-x="1404" d="M18 0l570 1454h229l569 -1454h-219l-151 385h-629l-149 -385h-220zM440 1784l78 166l438 -226l-61 -129zM467 590h469l-234 598z" />
<glyph unicode="&#xc1;" horiz-adv-x="1404" d="M18 0l570 1454h229l569 -1454h-219l-151 385h-629l-149 -385h-220zM444 1724l438 226l78 -166l-454 -189zM467 590h469l-234 598z" />
<glyph unicode="&#xc2;" horiz-adv-x="1404" d="M18 0l570 1454h229l569 -1454h-219l-151 385h-629l-149 -385h-220zM346 1724l357 226l356 -226l-61 -129l-295 150l-295 -150zM467 590h469l-234 598z" />
<glyph unicode="&#xc3;" horiz-adv-x="1404" d="M18 0l570 1454h229l569 -1454h-219l-151 385h-629l-149 -385h-220zM350 1724l82 82q35 35 75 53.5t80 19.5t76.5 -12.5t61.5 -39.5q12 -14 27.5 -28.5t32 -24t33.5 -8.5t36 20l82 82l119 -119l-82 -82q-35 -35 -76 -53.5t-81 -19.5t-76 12.5t-60 40.5q-12 14 -27.5 28.5 t-32 23.5t-34 8t-35.5 -19l-82 -82zM467 590h469l-234 598z" />
<glyph unicode="&#xc4;" horiz-adv-x="1404" d="M18 0l570 1454h229l569 -1454h-219l-151 385h-629l-149 -385h-220zM426 1606v204h205v-204h-205zM467 590h469l-234 598zM774 1606v204h205v-204h-205z" />
<glyph unicode="&#xc5;" horiz-adv-x="1404" d="M18 0l570 1454h229l569 -1454h-219l-151 385h-629l-149 -385h-220zM467 590h469l-234 598zM498 1720q0 86 59.5 145.5t145.5 59.5t145 -59.5t59 -145.5t-59 -145t-145 -59t-145.5 59t-59.5 145zM641 1720q0 -27 17.5 -44t44.5 -17t44 17.5t17 43.5q0 27 -17.5 44.5 t-43.5 17.5q-27 0 -44.5 -17.5t-17.5 -44.5z" />
<glyph unicode="&#xc6;" horiz-adv-x="2228" d="M-14 0l1040 1454h1092v-205h-840v-420h778v-204h-778v-420h840v-205h-1045v385h-561l-274 -385h-252zM659 590h414v577z" />
<glyph unicode="&#xc7;" horiz-adv-x="1431" d="M88 727q0 158 59.5 296t163 241.5t241.5 163t296 59.5q156 0 290 -57.5t238 -157.5l-143 -146q-76 72 -174 114t-211 42q-115 0 -216.5 -44t-177 -119t-118.5 -176t-43 -216t43 -216t118.5 -177t177 -119t216.5 -43q113 0 211 42t174 114l143 -146q-96 -92 -218 -147 t-261 -66v-71h102v-41q0 -47 -17 -88t-48 -72t-72 -48.5t-88 -17.5v123q33 0 57.5 16.5t36.5 45.5h-94v155q-145 12 -270 77t-217 166t-145.5 233.5t-53.5 279.5z" />
<glyph unicode="&#xc8;" horiz-adv-x="1339" d="M184 0v1454h1045v-205h-840v-420h778v-204h-778v-420h840v-205h-1045zM445 1784l78 166l438 -226l-61 -129z" />
<glyph unicode="&#xc9;" horiz-adv-x="1339" d="M184 0v1454h1045v-205h-840v-420h778v-204h-778v-420h840v-205h-1045zM448 1724l438 226l78 -166l-454 -189z" />
<glyph unicode="&#xca;" horiz-adv-x="1339" d="M184 0v1454h1045v-205h-840v-420h778v-204h-778v-420h840v-205h-1045zM350 1724l357 226l356 -226l-61 -129l-295 150l-295 -150z" />
<glyph unicode="&#xcb;" horiz-adv-x="1339" d="M184 0v1454h1045v-205h-840v-420h778v-204h-778v-420h840v-205h-1045zM430 1606v204h205v-204h-205zM778 1606v204h205v-204h-205z" />
<glyph unicode="&#xcc;" horiz-adv-x="573" d="M25 1784l78 166l438 -226l-61 -129zM184 0v1454h205v-1454h-205z" />
<glyph unicode="&#xcd;" horiz-adv-x="573" d="M29 1724l438 226l78 -166l-454 -189zM184 0v1454h205v-1454h-205z" />
<glyph unicode="&#xce;" horiz-adv-x="573" d="M-70 1724l357 226l356 -226l-61 -129l-295 150l-295 -150zM184 0v1454h205v-1454h-205z" />
<glyph unicode="&#xcf;" horiz-adv-x="573" d="M10 1606v204h205v-204h-205zM184 0v1454h205v-1454h-205zM358 1606v204h205v-204h-205z" />
<glyph unicode="&#xd0;" horiz-adv-x="1638" d="M12 625v204h246v625h563q150 0 283 -57.5t231.5 -155.5t155.5 -231t57 -283q0 -152 -57 -284t-155.5 -230t-231.5 -155.5t-283 -57.5h-563v625h-246zM463 205h358q109 0 204 41t166 111.5t111.5 165.5t40.5 204t-40.5 204t-111.5 165.5t-166 111.5t-204 41h-358v-420h246 v-204h-246v-420z" />
<glyph unicode="&#xd1;" horiz-adv-x="1589" d="M184 0v1454h205l811 -1106v1106h205v-1454h-205l-811 1106v-1106h-205zM442 1683l82 82q35 35 75 53.5t80 19.5t76.5 -12.5t61.5 -39.5q12 -14 27.5 -28.5t32 -24t33.5 -8.5t36 20l82 82l119 -119l-82 -82q-35 -35 -76 -53.5t-81 -19.5t-76 12.5t-60 40.5 q-12 14 -27.5 28.5t-32 23.5t-34 8t-35.5 -19l-82 -82z" />
<glyph unicode="&#xd2;" d="M88 727q0 158 59.5 296t163 241.5t241.5 163t296 59.5t296 -59.5t241.5 -163t163 -241.5t59.5 -296t-59.5 -296t-163 -241.5t-241.5 -163t-296 -59.5t-296 59.5t-241.5 163t-163 241.5t-59.5 296zM293 727q0 -115 43 -216t118.5 -177t177 -119t216.5 -43t216 43t176 119 t119 177t44 216t-44 216t-119 176t-176 119t-216 44t-216.5 -44t-177 -119t-118.5 -176t-43 -216zM586 1784l78 166l438 -226l-61 -129z" />
<glyph unicode="&#xd3;" d="M88 727q0 158 59.5 296t163 241.5t241.5 163t296 59.5t296 -59.5t241.5 -163t163 -241.5t59.5 -296t-59.5 -296t-163 -241.5t-241.5 -163t-296 -59.5t-296 59.5t-241.5 163t-163 241.5t-59.5 296zM293 727q0 -115 43 -216t118.5 -177t177 -119t216.5 -43t216 43t176 119 t119 177t44 216t-44 216t-119 176t-176 119t-216 44t-216.5 -44t-177 -119t-118.5 -176t-43 -216zM590 1724l438 226l78 -166l-454 -189z" />
<glyph unicode="&#xd4;" d="M88 727q0 158 59.5 296t163 241.5t241.5 163t296 59.5t296 -59.5t241.5 -163t163 -241.5t59.5 -296t-59.5 -296t-163 -241.5t-241.5 -163t-296 -59.5t-296 59.5t-241.5 163t-163 241.5t-59.5 296zM293 727q0 -115 43 -216t118.5 -177t177 -119t216.5 -43t216 43t176 119 t119 177t44 216t-44 216t-119 176t-176 119t-216 44t-216.5 -44t-177 -119t-118.5 -176t-43 -216zM491 1724l357 226l356 -226l-61 -129l-295 150l-295 -150z" />
<glyph unicode="&#xd5;" d="M88 727q0 158 59.5 296t163 241.5t241.5 163t296 59.5t296 -59.5t241.5 -163t163 -241.5t59.5 -296t-59.5 -296t-163 -241.5t-241.5 -163t-296 -59.5t-296 59.5t-241.5 163t-163 241.5t-59.5 296zM293 727q0 -115 43 -216t118.5 -177t177 -119t216.5 -43t216 43t176 119 t119 177t44 216t-44 216t-119 176t-176 119t-216 44t-216.5 -44t-177 -119t-118.5 -176t-43 -216zM496 1724l82 82q35 35 75 53.5t80 19.5t76.5 -12.5t61.5 -39.5q12 -14 27.5 -28.5t32 -24t33.5 -8.5t36 20l82 82l119 -119l-82 -82q-35 -35 -76 -53.5t-81 -19.5t-76 12.5 t-60 40.5q-12 14 -27.5 28.5t-32 23.5t-34 8t-35.5 -19l-82 -82z" />
<glyph unicode="&#xd6;" d="M88 727q0 158 59.5 296t163 241.5t241.5 163t296 59.5t296 -59.5t241.5 -163t163 -241.5t59.5 -296t-59.5 -296t-163 -241.5t-241.5 -163t-296 -59.5t-296 59.5t-241.5 163t-163 241.5t-59.5 296zM293 727q0 -115 43 -216t118.5 -177t177 -119t216.5 -43t216 43t176 119 t119 177t44 216t-44 216t-119 176t-176 119t-216 44t-216.5 -44t-177 -119t-118.5 -176t-43 -216zM572 1606v204h205v-204h-205zM920 1606v204h205v-204h-205z" />
<glyph unicode="&#xd7;" horiz-adv-x="1036" d="M111 442l264 265l-264 264l143 143l264 -264l264 264l144 -143l-264 -264l264 -265l-144 -143l-264 264l-264 -264z" />
<glyph unicode="&#xd8;" d="M88 727q0 158 59.5 296t163 241.5t241.5 163t296 59.5q43 0 86 -5t84 -16l49 133l193 -71l-50 -133q88 -49 162 -119t126 -156t81 -186t29 -207q0 -158 -59.5 -296t-163 -241.5t-241.5 -163t-296 -59.5q-41 0 -78 4t-74 13l-47 -129l-192 71l45 123q-92 47 -168 118 t-131.5 158t-85 189t-29.5 213zM293 727q0 -156 76.5 -284t201.5 -199l377 1028q-25 4 -49.5 7t-50.5 3q-115 0 -216.5 -44t-177 -119t-118.5 -176t-43 -216zM768 178q39 -6 80 -6q115 0 216 43t176 119t119 177t44 216q0 150 -73 274.5t-191 196.5z" />
<glyph unicode="&#xd9;" horiz-adv-x="1550" d="M166 578v876h205v-876q0 -84 31.5 -158t87 -129t129 -87t157.5 -32t158 32t129 87t87 129t32 158v876h204v-876q0 -127 -48 -238t-131 -194t-194.5 -131t-236.5 -48q-127 0 -237.5 48t-193.5 131t-131 194t-48 238zM514 1784l78 166l438 -226l-61 -129z" />
<glyph unicode="&#xda;" horiz-adv-x="1550" d="M166 578v876h205v-876q0 -84 31.5 -158t87 -129t129 -87t157.5 -32t158 32t129 87t87 129t32 158v876h204v-876q0 -127 -48 -238t-131 -194t-194.5 -131t-236.5 -48q-127 0 -237.5 48t-193.5 131t-131 194t-48 238zM518 1724l438 226l78 -166l-454 -189z" />
<glyph unicode="&#xdb;" horiz-adv-x="1550" d="M166 578v876h205v-876q0 -84 31.5 -158t87 -129t129 -87t157.5 -32t158 32t129 87t87 129t32 158v876h204v-876q0 -127 -48 -238t-131 -194t-194.5 -131t-236.5 -48q-127 0 -237.5 48t-193.5 131t-131 194t-48 238zM419 1724l357 226l356 -226l-61 -129l-295 150 l-295 -150z" />
<glyph unicode="&#xdc;" horiz-adv-x="1550" d="M166 578v876h205v-876q0 -84 31.5 -158t87 -129t129 -87t157.5 -32t158 32t129 87t87 129t32 158v876h204v-876q0 -127 -48 -238t-131 -194t-194.5 -131t-236.5 -48q-127 0 -237.5 48t-193.5 131t-131 194t-48 238zM500 1606v204h205v-204h-205zM848 1606v204h205v-204 h-205z" />
<glyph unicode="&#xdd;" horiz-adv-x="1392" d="M12 1454h248l436 -647l437 647h247l-581 -858v-596h-205v596zM442 1724l438 226l78 -166l-454 -189z" />
<glyph unicode="&#xde;" horiz-adv-x="1388" d="M184 0v1454h205v-215h445q102 0 193 -39t158.5 -106.5t106.5 -158.5t39 -194q0 -102 -39 -192t-106.5 -157.5t-158.5 -106.5t-193 -39h-445v-246h-205zM389 451h445q61 0 114 22.5t93 62t62.5 92t22.5 113.5t-22.5 114.5t-62.5 93.5t-93 62.5t-114 22.5h-445v-583z" />
<glyph unicode="&#xdf;" horiz-adv-x="1449" d="M143 0v1038q0 86 33 162t89.5 132.5t132 89t161.5 32.5h315q86 0 162 -32.5t132.5 -89t89 -132.5t32.5 -162q0 -80 -28.5 -150.5t-77.5 -125.5q86 -55 138 -146.5t52 -201.5q0 -86 -32.5 -162t-89 -131t-132.5 -88t-162 -33h-114q-86 0 -162 33t-132 89t-89 132t-33 162 h205q0 -43 16.5 -82t45 -67.5t67.5 -45t82 -16.5h114q43 0 82 16.5t68 44t45 66.5t16 82t-16 82t-45 67.5t-68 45t-82 16.5h-84v204q43 0 82 16.5t68 44.5t45 66.5t16 81.5t-16 82t-45 68t-67.5 45t-82.5 16h-315q-43 0 -82 -16t-67.5 -45t-45 -68t-16.5 -82v-1038h-205z " />
<glyph unicode="&#xe0;" horiz-adv-x="1079" d="M53 303q0 68 30 126t80 102t118.5 70t146.5 26h313v41q0 39 -19.5 70.5t-52 54t-76.5 35t-93 12.5q-61 0 -114.5 -10.5t-94.5 -22.5q-47 -14 -84 -31l-53 187q53 23 110 41q49 16 111.5 28t124.5 12q92 0 173 -27.5t142.5 -77.5t96 -119.5t34.5 -151.5v-668h-205v127 q-51 -66 -133 -106.5t-180 -40.5q-78 0 -146.5 25.5t-118.5 69.5t-80 102.5t-30 125.5zM258 324q0 -59 70.5 -99.5t171.5 -40.5q100 0 170.5 40t70.5 100v139h-241q-100 0 -171 -40t-71 -99zM258 1354l78 166l438 -226l-61 -129z" />
<glyph unicode="&#xe1;" horiz-adv-x="1079" d="M53 303q0 68 30 126t80 102t118.5 70t146.5 26h313v41q0 39 -19.5 70.5t-52 54t-76.5 35t-93 12.5q-61 0 -114.5 -10.5t-94.5 -22.5q-47 -14 -84 -31l-53 187q53 23 110 41q49 16 111.5 28t124.5 12q92 0 173 -27.5t142.5 -77.5t96 -119.5t34.5 -151.5v-668h-205v127 q-51 -66 -133 -106.5t-180 -40.5q-78 0 -146.5 25.5t-118.5 69.5t-80 102.5t-30 125.5zM258 324q0 -59 70.5 -99.5t171.5 -40.5q100 0 170.5 40t70.5 100v139h-241q-100 0 -171 -40t-71 -99zM291 1294l438 226l78 -166l-454 -189z" />
<glyph unicode="&#xe2;" horiz-adv-x="1079" d="M53 303q0 68 30 126t80 102t118.5 70t146.5 26h313v41q0 39 -19.5 70.5t-52 54t-76.5 35t-93 12.5q-61 0 -114.5 -10.5t-94.5 -22.5q-47 -14 -84 -31l-53 187q53 23 110 41q49 16 111.5 28t124.5 12q92 0 173 -27.5t142.5 -77.5t96 -119.5t34.5 -151.5v-668h-205v127 q-51 -66 -133 -106.5t-180 -40.5q-78 0 -146.5 25.5t-118.5 69.5t-80 102.5t-30 125.5zM172 1294l357 226l356 -226l-61 -129l-295 150l-295 -150zM258 324q0 -59 70.5 -99.5t171.5 -40.5q100 0 170.5 40t70.5 100v139h-241q-100 0 -171 -40t-71 -99z" />
<glyph unicode="&#xe3;" horiz-adv-x="1079" d="M53 303q0 68 30 126t80 102t118.5 70t146.5 26h313v41q0 39 -19.5 70.5t-52 54t-76.5 35t-93 12.5q-61 0 -114.5 -10.5t-94.5 -22.5q-47 -14 -84 -31l-53 187q53 23 110 41q49 16 111.5 28t124.5 12q92 0 173 -27.5t142.5 -77.5t96 -119.5t34.5 -151.5v-668h-205v127 q-51 -66 -133 -106.5t-180 -40.5q-78 0 -146.5 25.5t-118.5 69.5t-80 102.5t-30 125.5zM168 1278l82 82q35 35 75 53.5t80 19.5t76.5 -12.5t61.5 -39.5q12 -14 27.5 -28.5t32 -24t33.5 -8.5t36 20l82 82l119 -119l-82 -82q-35 -35 -76 -53.5t-81 -19.5t-76 12.5t-60 40.5 q-12 14 -27.5 28.5t-32 23.5t-34 8t-35.5 -19l-82 -82zM258 324q0 -59 70.5 -99.5t171.5 -40.5q100 0 170.5 40t70.5 100v139h-241q-100 0 -171 -40t-71 -99z" />
<glyph unicode="&#xe4;" horiz-adv-x="1079" d="M53 303q0 68 30 126t80 102t118.5 70t146.5 26h313v41q0 39 -19.5 70.5t-52 54t-76.5 35t-93 12.5q-61 0 -114.5 -10.5t-94.5 -22.5q-47 -14 -84 -31l-53 187q53 23 110 41q49 16 111.5 28t124.5 12q92 0 173 -27.5t142.5 -77.5t96 -119.5t34.5 -151.5v-668h-205v127 q-51 -66 -133 -106.5t-180 -40.5q-78 0 -146.5 25.5t-118.5 69.5t-80 102.5t-30 125.5zM244 1176v204h205v-204h-205zM258 324q0 -59 70.5 -99.5t171.5 -40.5q100 0 170.5 40t70.5 100v139h-241q-100 0 -171 -40t-71 -99zM592 1176v204h205v-204h-205z" />
<glyph unicode="&#xe5;" horiz-adv-x="1079" d="M53 303q0 68 30 126t80 102t118.5 70t146.5 26h313v41q0 39 -19.5 70.5t-52 54t-76.5 35t-93 12.5q-61 0 -114.5 -10.5t-94.5 -22.5q-47 -14 -84 -31l-53 187q53 23 110 41q49 16 111.5 28t124.5 12q92 0 173 -27.5t142.5 -77.5t96 -119.5t34.5 -151.5v-668h-205v127 q-51 -66 -133 -106.5t-180 -40.5q-78 0 -146.5 25.5t-118.5 69.5t-80 102.5t-30 125.5zM258 324q0 -59 70.5 -99.5t171.5 -40.5q100 0 170.5 40t70.5 100v139h-241q-100 0 -171 -40t-71 -99zM316 1318q0 86 59.5 145.5t145.5 59.5t145 -59.5t59 -145.5t-59 -145t-145 -59 t-145.5 59t-59.5 145zM459 1318q0 -27 17.5 -44t44.5 -17t44 17.5t17 43.5q0 27 -17.5 44.5t-43.5 17.5q-27 0 -44.5 -17.5t-17.5 -44.5z" />
<glyph unicode="&#xe6;" horiz-adv-x="1759" d="M51 303q0 68 30 126t80 102t118.5 70t146.5 26h313v41q0 39 -19.5 70.5t-52 54t-76.5 35t-93 12.5q-61 0 -114.5 -10.5t-94.5 -22.5q-47 -14 -84 -31l-53 187q53 23 110 41q49 16 111.5 28t124.5 12q117 0 215 -44t157 -121q66 78 156 121.5t195 43.5q100 0 187 -41.5 t152.5 -113.5t103.5 -169t38 -208v-49h-756q8 -59 31.5 -110.5t60.5 -88.5t83 -58.5t100 -21.5q72 0 135 31t106 84l170 -115q-72 -94 -179 -149t-232 -55q-100 0 -188.5 41.5t-153.5 113.5q-59 -72 -158.5 -113.5t-222.5 -41.5q-92 0 -173 25.5t-142.5 69.5t-96.5 102.5 t-35 125.5zM256 324q0 -59 70.5 -99.5t171.5 -40.5q100 0 170.5 40t70.5 100v139h-241q-100 0 -171 -40t-71 -99zM961 627h518q-29 92 -98.5 152.5t-159.5 60.5q-92 0 -162 -60.5t-98 -152.5z" />
<glyph unicode="&#xe7;" horiz-adv-x="1060" d="M76 512q0 111 40 208t109.5 169t164.5 113.5t208 41.5q125 0 232.5 -55t179.5 -149l-170 -115q-43 53 -106.5 84t-135.5 31q-70 0 -128 -26t-100 -71t-65.5 -104t-23.5 -127t23.5 -127t65.5 -104t100 -71t128 -26q72 0 135.5 31t106.5 84l170 -115q-66 -86 -158 -139 t-203 -63v-74h103v-41q0 -47 -17.5 -88t-48.5 -72t-72 -48t-88 -17v122q33 0 57.5 16.5t37.5 45.5h-95v160q-98 12 -181 58t-142.5 115.5t-93 160t-33.5 192.5z" />
<glyph unicode="&#xe8;" horiz-adv-x="1099" d="M76 512q0 111 38 208t103.5 169t152.5 113.5t187 41.5t187 -41.5t153 -113.5t103.5 -169t37.5 -208v-82h-749q23 -106 96.5 -176t171.5 -70q72 0 135.5 31t106.5 84l170 -115q-72 -94 -179.5 -149t-232.5 -55q-100 0 -187 41.5t-152.5 113.5t-103.5 169t-38 208zM289 594 h534q-12 53 -36.5 98t-59.5 78t-78 51.5t-92 18.5q-98 0 -172 -70t-96 -176zM295 1354l78 166l438 -226l-61 -129z" />
<glyph unicode="&#xe9;" horiz-adv-x="1099" d="M76 512q0 111 38 208t103.5 169t152.5 113.5t187 41.5t187 -41.5t153 -113.5t103.5 -169t37.5 -208v-82h-749q23 -106 96.5 -176t171.5 -70q72 0 135.5 31t106.5 84l170 -115q-72 -94 -179.5 -149t-232.5 -55q-100 0 -187 41.5t-152.5 113.5t-103.5 169t-38 208zM289 594 h534q-12 53 -36.5 98t-59.5 78t-78 51.5t-92 18.5q-98 0 -172 -70t-96 -176zM299 1294l438 226l78 -166l-454 -189z" />
<glyph unicode="&#xea;" horiz-adv-x="1099" d="M76 512q0 111 38 208t103.5 169t152.5 113.5t187 41.5t187 -41.5t153 -113.5t103.5 -169t37.5 -208v-82h-749q23 -106 96.5 -176t171.5 -70q72 0 135.5 31t106.5 84l170 -115q-72 -94 -179.5 -149t-232.5 -55q-100 0 -187 41.5t-152.5 113.5t-103.5 169t-38 208z M200 1294l357 226l356 -226l-61 -129l-295 150l-295 -150zM289 594h534q-12 53 -36.5 98t-59.5 78t-78 51.5t-92 18.5q-98 0 -172 -70t-96 -176z" />
<glyph unicode="&#xeb;" horiz-adv-x="1099" d="M76 512q0 111 38 208t103.5 169t152.5 113.5t187 41.5t187 -41.5t153 -113.5t103.5 -169t37.5 -208v-82h-749q23 -106 96.5 -176t171.5 -70q72 0 135.5 31t106.5 84l170 -115q-72 -94 -179.5 -149t-232.5 -55q-100 0 -187 41.5t-152.5 113.5t-103.5 169t-38 208z M281 1176v204h205v-204h-205zM289 594h534q-12 53 -36.5 98t-59.5 78t-78 51.5t-92 18.5q-98 0 -172 -70t-96 -176zM629 1176v204h205v-204h-205z" />
<glyph unicode="&#xec;" horiz-adv-x="491" d="M-16 1354l77 166l439 -226l-62 -129zM143 0v1024h205v-1024h-205z" />
<glyph unicode="&#xed;" horiz-adv-x="491" d="M-12 1294l438 226l78 -166l-454 -189zM143 0v1024h205v-1024h-205z" />
<glyph unicode="&#xee;" horiz-adv-x="491" d="M-111 1294l357 226l356 -226l-61 -129l-295 150l-295 -150zM143 0v1024h205v-1024h-205z" />
<glyph unicode="&#xef;" horiz-adv-x="491" d="M-31 1176v204h205v-204h-205zM143 0v1024h205v-1024h-205zM317 1176v204h205v-204h-205z" />
<glyph unicode="&#xf1;" horiz-adv-x="1169" d="M143 0v1024h205v-127q53 68 132 107.5t171 39.5q80 0 149.5 -30.5t122 -82.5t83 -122t30.5 -150v-659h-205v598q0 49 -19 93t-52 77t-77 52.5t-93 19.5t-93 -18.5t-77 -49.5t-52.5 -73t-19.5 -91v-608h-205zM238 1278l82 82q35 35 75 53.5t80 19.5t76.5 -12.5t61.5 -39.5 q12 -14 27.5 -28.5t32 -24t33.5 -8.5t36 20l82 82l119 -119l-82 -82q-35 -35 -76 -53.5t-81 -19.5t-76 12.5t-60 40.5q-12 14 -27.5 28.5t-32 23.5t-34 8t-35.5 -19l-82 -82z" />
<glyph unicode="&#xf2;" horiz-adv-x="1196" d="M76 512q0 111 40 208t109.5 169t164.5 113.5t208 41.5t208 -41.5t164.5 -113.5t109.5 -169t40 -208t-40 -208t-109.5 -169t-164.5 -113.5t-208 -41.5t-208 41.5t-164.5 113.5t-109.5 169t-40 208zM281 512q0 -68 23.5 -127t65.5 -104t100 -71t128 -26t128 26t100 71 t65.5 104t23.5 127t-23.5 127t-65.5 104t-100 71t-128 26t-128 -26t-100 -71t-65.5 -104t-23.5 -127zM336 1354l78 166l438 -226l-61 -129z" />
<glyph unicode="&#xf3;" horiz-adv-x="1196" d="M76 512q0 111 40 208t109.5 169t164.5 113.5t208 41.5t208 -41.5t164.5 -113.5t109.5 -169t40 -208t-40 -208t-109.5 -169t-164.5 -113.5t-208 -41.5t-208 41.5t-164.5 113.5t-109.5 169t-40 208zM281 512q0 -68 23.5 -127t65.5 -104t100 -71t128 -26t128 26t100 71 t65.5 104t23.5 127t-23.5 127t-65.5 104t-100 71t-128 26t-128 -26t-100 -71t-65.5 -104t-23.5 -127zM340 1294l438 226l78 -166l-454 -189z" />
<glyph unicode="&#xf4;" horiz-adv-x="1196" d="M76 512q0 111 40 208t109.5 169t164.5 113.5t208 41.5t208 -41.5t164.5 -113.5t109.5 -169t40 -208t-40 -208t-109.5 -169t-164.5 -113.5t-208 -41.5t-208 41.5t-164.5 113.5t-109.5 169t-40 208zM241 1294l357 226l356 -226l-61 -129l-295 150l-295 -150zM281 512 q0 -68 23.5 -127t65.5 -104t100 -71t128 -26t128 26t100 71t65.5 104t23.5 127t-23.5 127t-65.5 104t-100 71t-128 26t-128 -26t-100 -71t-65.5 -104t-23.5 -127z" />
<glyph unicode="&#xf5;" horiz-adv-x="1196" d="M76 512q0 111 40 208t109.5 169t164.5 113.5t208 41.5t208 -41.5t164.5 -113.5t109.5 -169t40 -208t-40 -208t-109.5 -169t-164.5 -113.5t-208 -41.5t-208 41.5t-164.5 113.5t-109.5 169t-40 208zM246 1278l82 82q35 35 75 53.5t80 19.5t76.5 -12.5t61.5 -39.5 q12 -14 27.5 -28.5t32 -24t33.5 -8.5t36 20l82 82l119 -119l-82 -82q-35 -35 -76 -53.5t-81 -19.5t-76 12.5t-60 40.5q-12 14 -27.5 28.5t-32 23.5t-34 8t-35.5 -19l-82 -82zM281 512q0 -68 23.5 -127t65.5 -104t100 -71t128 -26t128 26t100 71t65.5 104t23.5 127t-23.5 127 t-65.5 104t-100 71t-128 26t-128 -26t-100 -71t-65.5 -104t-23.5 -127z" />
<glyph unicode="&#xf6;" horiz-adv-x="1196" d="M76 512q0 111 40 208t109.5 169t164.5 113.5t208 41.5t208 -41.5t164.5 -113.5t109.5 -169t40 -208t-40 -208t-109.5 -169t-164.5 -113.5t-208 -41.5t-208 41.5t-164.5 113.5t-109.5 169t-40 208zM281 512q0 -68 23.5 -127t65.5 -104t100 -71t128 -26t128 26t100 71 t65.5 104t23.5 127t-23.5 127t-65.5 104t-100 71t-128 26t-128 -26t-100 -71t-65.5 -104t-23.5 -127zM322 1176v204h205v-204h-205zM670 1176v204h205v-204h-205z" />
<glyph unicode="&#xf7;" horiz-adv-x="1150" d="M121 563v205h909v-205h-909zM473 215v205h205v-205h-205zM473 911v205h205v-205h-205z" />
<glyph unicode="&#xf8;" horiz-adv-x="1198" d="M78 512q0 111 40 208t109.5 169t164.5 113.5t208 41.5q39 0 80 -6l29 76l192 -70l-29 -75q115 -72 182.5 -191t67.5 -266q0 -111 -40 -208t-109.5 -169t-164.5 -113.5t-208 -41.5q-23 0 -43 2t-43 6l-27 -78l-192 70l29 77q-113 70 -179.5 190t-66.5 265zM283 512 q0 -78 29.5 -143.5t82.5 -112.5l213 584h-8q-70 0 -128 -26t-100 -71t-65.5 -104t-23.5 -127zM586 184h14q70 0 128 26t100 71t66 104t24 127q0 78 -32 144.5t-85 113.5z" />
<glyph unicode="&#xf9;" horiz-adv-x="1169" d="M133 365v659h205v-598q0 -49 19.5 -93t52 -77t76.5 -52.5t94 -19.5q49 0 92 18.5t76.5 49.5t53 73t19.5 91v608h205v-1024h-205v125q-53 -66 -132 -105.5t-171 -39.5q-80 0 -150.5 29.5t-122.5 81.5t-82 123t-30 151zM318 1354l78 166l438 -226l-61 -129z" />
<glyph unicode="&#xfa;" horiz-adv-x="1169" d="M133 365v659h205v-598q0 -49 19.5 -93t52 -77t76.5 -52.5t94 -19.5q49 0 92 18.5t76.5 49.5t53 73t19.5 91v608h205v-1024h-205v125q-53 -66 -132 -105.5t-171 -39.5q-80 0 -150.5 29.5t-122.5 81.5t-82 123t-30 151zM321 1294l438 226l78 -166l-454 -189z" />
<glyph unicode="&#xfb;" horiz-adv-x="1169" d="M133 365v659h205v-598q0 -49 19.5 -93t52 -77t76.5 -52.5t94 -19.5q49 0 92 18.5t76.5 49.5t53 73t19.5 91v608h205v-1024h-205v125q-53 -66 -132 -105.5t-171 -39.5q-80 0 -150.5 29.5t-122.5 81.5t-82 123t-30 151zM223 1294l357 226l356 -226l-61 -129l-295 150 l-295 -150z" />
<glyph unicode="&#xfc;" horiz-adv-x="1169" d="M133 365v659h205v-598q0 -49 19.5 -93t52 -77t76.5 -52.5t94 -19.5q49 0 92 18.5t76.5 49.5t53 73t19.5 91v608h205v-1024h-205v125q-53 -66 -132 -105.5t-171 -39.5q-80 0 -150.5 29.5t-122.5 81.5t-82 123t-30 151zM303 1176v204h205v-204h-205zM651 1176v204h205v-204 h-205z" />
<glyph unicode="&#xfd;" horiz-adv-x="1064" d="M33 1024h221l278 -733l279 733h221l-432 -1137q-47 -121 -117.5 -185t-136.5 -93q-78 -35 -162 -39v205q45 0 84 18q35 14 70 46t57 91l27 70zM274 1294l438 226l78 -166l-454 -189z" />
<glyph unicode="&#xfe;" horiz-adv-x="1216" d="M143 -430v1884h205v-580q61 78 147.5 124t186.5 46q94 0 177 -41.5t145.5 -113.5t98.5 -169t36 -208t-36 -208t-98.5 -169t-145.5 -113.5t-177 -41.5q-100 0 -186 45t-148 122v-577h-205zM348 512q0 -68 22.5 -127t62.5 -104t93.5 -71t114.5 -26t114.5 26t93.5 71 t62.5 104t22.5 127t-22.5 127t-62.5 104t-93.5 71t-114.5 26t-114.5 -26t-93.5 -71t-62.5 -104t-22.5 -127z" />
<glyph unicode="&#xff;" horiz-adv-x="1064" d="M33 1024h221l278 -733l279 733h221l-432 -1137q-47 -121 -117.5 -185t-136.5 -93q-78 -35 -162 -39v205q45 0 84 18q35 14 70 46t57 91l27 70zM256 1176v204h205v-204h-205zM604 1176v204h205v-204h-205z" />
<glyph unicode="&#x152;" horiz-adv-x="2115" d="M90 727q0 154 59.5 287t161 231t237.5 153.5t290 55.5h1167v-205h-840v-420h779v-204h-779v-420h840v-205h-1167q-154 0 -290 55.5t-237.5 153.5t-161 231t-59.5 287zM295 727q0 -113 43 -208t116.5 -164.5t172 -109.5t211.5 -40h123v1044h-123q-113 0 -211.5 -40 t-172 -109.5t-116.5 -164.5t-43 -208z" />
<glyph unicode="&#x153;" horiz-adv-x="1937" d="M76 512q0 111 40 208t109.5 169t164.5 113.5t208 41.5q131 0 238.5 -56t179.5 -152q66 96 165 152t216 56q100 0 187 -41.5t152.5 -113.5t103.5 -169t38 -208v-82h-750q23 -106 96.5 -176t172.5 -70q72 0 135 31t106 84l170 -115q-72 -94 -179 -149t-232 -55 q-117 0 -216.5 56t-164.5 150q-72 -94 -179.5 -150t-238.5 -56q-113 0 -208 41.5t-164.5 113.5t-109.5 169t-40 208zM281 512q0 -68 23.5 -127t65.5 -104t100 -71t128 -26t128 26t100 71t65.5 104t23.5 127t-23.5 127t-65.5 104t-100 71t-128 26t-128 -26t-100 -71 t-65.5 -104t-23.5 -127zM1128 594h535q-12 53 -36.5 98t-59.5 78t-78 51.5t-92 18.5q-98 0 -172 -70t-97 -176z" />
<glyph unicode="&#x178;" horiz-adv-x="1392" d="M12 1454h248l436 -647l437 647h247l-581 -858v-596h-205v596zM420 1606v204h205v-204h-205zM768 1606v204h205v-204h-205z" />
<glyph unicode="&#x2c6;" horiz-adv-x="913" d="M100 1294l357 226l356 -226l-61 -129l-295 150l-295 -150z" />
<glyph unicode="&#x2dc;" horiz-adv-x="880" d="M88 1253l82 82q35 35 75 53.5t80 19.5t76.5 -12.5t61.5 -39.5q12 -14 27.5 -28.5t32 -24t33.5 -8.5t36 20l82 82l119 -119l-82 -82q-35 -35 -76 -53.5t-81 -19.5t-76 12.5t-60 40.5q-12 14 -27.5 28.5t-32 23.5t-34 8t-35.5 -19l-82 -82z" />
<glyph unicode="&#x2000;" horiz-adv-x="975" />
<glyph unicode="&#x2001;" horiz-adv-x="1950" />
<glyph unicode="&#x2002;" horiz-adv-x="975" />
<glyph unicode="&#x2003;" horiz-adv-x="1950" />
<glyph unicode="&#x2004;" horiz-adv-x="650" />
<glyph unicode="&#x2005;" horiz-adv-x="487" />
<glyph unicode="&#x2006;" horiz-adv-x="325" />
<glyph unicode="&#x2007;" horiz-adv-x="325" />
<glyph unicode="&#x2008;" horiz-adv-x="243" />
<glyph unicode="&#x2009;" horiz-adv-x="390" />
<glyph unicode="&#x200a;" horiz-adv-x="108" />
<glyph unicode="&#x2010;" horiz-adv-x="962" d="M129 471v205h705v-205h-705z" />
<glyph unicode="&#x2011;" horiz-adv-x="962" d="M129 471v205h705v-205h-705z" />
<glyph unicode="&#x2012;" horiz-adv-x="962" d="M129 471v205h705v-205h-705z" />
<glyph unicode="&#x2013;" horiz-adv-x="1134" d="M133 461v205h868v-205h-868z" />
<glyph unicode="&#x2014;" horiz-adv-x="1748" d="M133 461v205h1483v-205h-1483z" />
<glyph unicode="&#x2018;" horiz-adv-x="460" d="M125 1024v225q0 86 59.5 145.5t145.5 59.5v-102q-35 0 -58.5 -23.5t-23.5 -58.5v-41h82v-205h-205z" />
<glyph unicode="&#x2019;" horiz-adv-x="438" d="M133 1024v102q35 0 58.5 24t23.5 58v41h-82v205h205v-225q0 -86 -59.5 -145.5t-145.5 -59.5z" />
<glyph unicode="&#x201a;" horiz-adv-x="454" d="M129 -20v102q35 0 58.5 23.5t23.5 58.5v41h-82v205h205v-226q0 -86 -59.5 -145t-145.5 -59z" />
<glyph unicode="&#x201c;" horiz-adv-x="788" d="M125 1024v225q0 86 59.5 145.5t145.5 59.5v-102q-35 0 -58.5 -23.5t-23.5 -58.5v-41h82v-205h-205zM453 1024v205v20q0 86 59 145.5t145 59.5v-102q-35 0 -58.5 -23.5t-23.5 -58.5v-41h82v-205h-204z" />
<glyph unicode="&#x201d;" horiz-adv-x="768" d="M133 1024v102q35 0 58.5 24t23.5 58v41h-82v205h205v-225q0 -86 -59.5 -145.5t-145.5 -59.5zM461 1024v102q35 0 58.5 24t23.5 58v41h-82v205h205v-225q0 -86 -59.5 -145.5t-145.5 -59.5z" />
<glyph unicode="&#x201e;" horiz-adv-x="778" d="M129 -20v102q35 0 58.5 23.5t23.5 58.5v41h-82v205h205v-226q0 -86 -59.5 -145t-145.5 -59zM457 -20v102q35 0 58.5 23.5t23.5 58.5v41h-82v205h205v-226q0 -86 -59.5 -145t-145.5 -59z" />
<glyph unicode="&#x2022;" horiz-adv-x="626" d="M190 727q0 51 36 87t87 36t87 -36t36 -87t-35.5 -87t-87.5 -36q-51 0 -87 36t-36 87z" />
<glyph unicode="&#x2026;" horiz-adv-x="1363" d="M129 0v205h205v-205h-205zM580 0v205h204v-205h-204zM1030 0v205h205v-205h-205z" />
<glyph unicode="&#x202f;" horiz-adv-x="390" />
<glyph unicode="&#x2039;" horiz-adv-x="755" d="M66 520l471 471l116 -114l-356 -357l356 -356l-116 -115z" />
<glyph unicode="&#x203a;" horiz-adv-x="755" d="M102 164l357 356l-357 357l117 114l471 -471l-471 -471z" />
<glyph unicode="&#x205f;" horiz-adv-x="487" />
<glyph unicode="&#x20ac;" horiz-adv-x="1421" d="M80 481v164h100q-4 20 -4 40v42v40.5t4 41.5h-100v164h131q33 111 95.5 206t145.5 164.5t182 108.5t208 39q147 0 273 -71.5t218 -184.5l-166 -125q-63 74 -146 123t-179 49q-68 0 -130.5 -22.5t-115.5 -64.5t-95 -98.5t-71 -123.5h539v-164h-584q-2 -20 -3 -40.5 t-1 -41.5q0 -23 1 -42t3 -40h584v-164h-539q29 -68 71 -125t95 -98t115.5 -63.5t130.5 -22.5q96 0 179 49t146 123l164 -125q-92 -113 -218 -184.5t-271 -71.5q-109 0 -208 39t-182 107.5t-145.5 164t-95.5 207.5h-131z" />
<glyph unicode="&#x2122;" horiz-adv-x="1515" d="M84 1331v123h520v-123h-198v-520h-123v520h-199zM686 811v643h164l172 -475l172 475h164v-643h-123v418l-152 -418h-122l-152 418v-418h-123z" />
<glyph unicode="&#x25fc;" horiz-adv-x="1024" d="M0 0v1024h1024v-1024h-1024z" />
<glyph unicode="&#xfb01;" horiz-adv-x="1224" d="M59 819v205h164v143q0 76 29 143.5t79 118t117.5 79t143.5 28.5h491v-287h-204v82h-287q-68 0 -116 -48t-48 -116v-143h287v-205h-287v-819h-205v819h-164zM879 0v1024h204v-1024h-204z" />
<glyph unicode="&#xfb02;" horiz-adv-x="1226" d="M59 819v205h164v143q0 76 29 143.5t79 118t117.5 79t143.5 28.5h491v-1536h-204v1331h-287q-68 0 -116 -48t-48 -116v-143h287v-205h-287v-819h-205v819h-164z" />
<glyph unicode="&#xfb03;" horiz-adv-x="1826" d="M59 819v205h164v164q0 76 29 143.5t79 117.5t117.5 78.5t143.5 28.5q92 0 170 -40l-96 -183q-35 18 -74 19q-68 0 -116 -48.5t-48 -115.5v-164h397v143q0 76 29 143.5t79 118t117.5 79t143.5 28.5h492v-287h-205v82h-287q-68 0 -116 -48t-48 -116v-143h287v-205h-287 v-819h-205v819h-397v-819h-205v819h-164zM1481 0v1024h205v-1024h-205z" />
<glyph unicode="&#xfb04;" horiz-adv-x="1828" d="M59 819v205h164v164q0 76 29 143.5t79 117.5t117.5 78.5t143.5 28.5q92 0 170 -40l-96 -183q-35 18 -74 19q-68 0 -116 -48.5t-48 -115.5v-164h397v143q0 76 29 143.5t79 118t117.5 79t143.5 28.5h492v-1536h-205v1331h-287q-68 0 -116 -48t-48 -116v-143h287v-205h-287 v-819h-205v819h-397v-819h-205v819h-164z" />
</font>
</defs>
</svg>
